<?xml version="1.0" encoding="UTF-8"?>
<svg version="1.1" xmlns="http://www.w3.org/2000/svg" width="512" height="512">
<path d="M0 0 C12.04370504 10.15549704 20.45812249 21.37087633 24.4375 36.75 C24.4375 37.74 24.4375 38.73 24.4375 39.75 C25.31148438 40.00910156 26.18546875 40.26820312 27.0859375 40.53515625 C42.77876583 46.22334927 55.88621758 60.20173142 63.4375 74.75 C71.31666882 91.70566231 73.43609789 110.8025821 67.4375 128.75 C64.78774551 135.87623366 61.16770071 141.85618702 54.4375 145.75 C50.22213865 146.8967681 47.1411052 146.10870069 43.25 144.125 C40.1804605 141.53294442 37.88915459 138.92272948 35.4375 135.75 C34.81746094 136.17410156 34.19742187 136.59820312 33.55859375 137.03515625 C28.11032047 140.64354685 22.59804449 143.79597217 16.6875 146.5625 C16.07447021 146.8519751 15.46144043 147.1414502 14.82983398 147.43969727 C9.41576306 149.91613746 4.42295131 151.75 -1.5625 151.75 C-1.32015625 152.4821875 -1.0778125 153.214375 -0.828125 153.96875 C3.99647091 169.555906 7.02205694 186.42654993 7.4375 202.75 C7.46328125 203.63284668 7.4890625 204.51569336 7.515625 205.42529297 C8.60494469 247.806637 0.37835416 288.55090398 -28.5625 320.75 C-29.64144531 321.9565625 -29.64144531 321.9565625 -30.7421875 323.1875 C-39.78213008 332.73913745 -51.11871899 340.36840918 -62.5625 346.75 C-62.04300781 347.35585938 -61.52351563 347.96171875 -60.98828125 348.5859375 C-54.00982251 356.97040733 -47.93051229 365.37422131 -48.5625 376.75 C-50.20854813 382.65640798 -52.75847045 385.27474458 -57.5625 388.75 C-60.00416553 389.97083276 -61.58817704 389.8838415 -64.31829834 389.89717102 C-65.3220752 389.90432632 -66.32585205 389.91148163 -67.36004639 389.91885376 C-68.46551819 389.92154266 -69.57098999 389.92423157 -70.70996094 389.92700195 C-71.8710437 389.93357315 -73.03212646 389.94014435 -74.22839355 389.94691467 C-78.08455463 389.96668334 -81.9406767 389.97831819 -85.796875 389.98828125 C-87.76875164 389.99439454 -87.76875164 389.99439454 -89.78046417 390.00063133 C-96.02004163 390.01968551 -102.25960725 390.03391501 -108.49920821 390.0422433 C-115.69861149 390.0520115 -122.89770696 390.07831874 -130.09700179 390.11874419 C-135.66312219 390.14892474 -141.22915446 390.16371407 -146.79535508 390.16702431 C-150.11897453 390.16937302 -153.44219035 390.18028581 -156.76573944 390.20348549 C-160.47656367 390.22777841 -164.18658188 390.22692932 -167.89746094 390.2199707 C-169.54352325 390.23918579 -169.54352325 390.23918579 -171.22283936 390.25878906 C-177.32950391 390.21701447 -180.91887141 389.84007108 -185.5625 385.75 C-188.5625 382.35 -188.5625 382.35 -188.5625 379.75 C-189.75640875 380.74233974 -190.94216913 381.74448154 -192.125 382.75 C-193.11693359 383.5853125 -193.11693359 383.5853125 -194.12890625 384.4375 C-196.12379029 386.33312015 -197.8706724 388.22510956 -199.65625 390.30859375 C-203.89497313 395.2186233 -208.45642364 399.79450231 -213.05053711 404.3684082 C-214.49774385 405.81025221 -215.93952026 407.25737116 -217.38085938 408.70507812 C-222.60552205 413.93348981 -227.94636156 418.9455217 -233.5625 423.75 C-235.19097017 425.22534536 -236.81651517 426.7039343 -238.4375 428.1875 C-243.32594044 432.58783595 -248.36869045 436.7165096 -253.5625 440.75 C-254.16449219 441.21921875 -254.76648438 441.6884375 -255.38671875 442.171875 C-260.40934408 446.07945777 -265.46997585 449.93398688 -270.5625 453.75 C-271.57376953 454.50869385 -271.57376953 454.50869385 -272.60546875 455.28271484 C-295.6581725 472.43071083 -325.24844997 492.89165994 -355.125 493.3125 C-355.85066162 493.32732422 -356.57632324 493.34214844 -357.32397461 493.35742188 C-362.75264442 493.25226604 -367.02078807 491.73475959 -371.5625 488.75 C-375.42710394 484.58811884 -376.96419579 481.81783151 -376.8203125 476.0625 C-375.04118965 460.10430715 -359.66990599 445.04993274 -349.80834961 433.30541992 C-348.64273962 431.85017766 -347.59674096 430.30136145 -346.5625 428.75 C-347.8 428.95625 -349.0375 429.1625 -350.3125 429.375 C-358.15186637 430.24191255 -366.88941387 429.14447135 -373.5625 424.75 C-377.6471116 421.11923414 -379.3458139 419.00353544 -379.875 413.5 C-379.20781632 405.49379583 -374.45038649 401.21248788 -368.6328125 396.18359375 C-363.24300315 391.9115184 -357.5423622 388.11786276 -351.83544922 384.28613281 C-340.72828635 376.77955185 -329.8055402 368.99569455 -319 361.0625 C-318.19651123 360.47428467 -317.39302246 359.88606934 -316.56518555 359.2800293 C-315.82051025 358.73000244 -315.07583496 358.17997559 -314.30859375 357.61328125 C-313.65560303 357.13157471 -313.0026123 356.64986816 -312.32983398 356.15356445 C-310.5936039 354.7747018 -309.02644395 353.41641331 -307.5625 351.75 C-307.53586188 349.79266692 -307.53586188 349.79266692 -308.0625 347.625 C-310.97102813 324.35677499 -296.91564243 298.21532656 -287.5625 277.75 C-286.89817947 276.26834483 -286.23409883 274.78658207 -285.5703125 273.3046875 C-266.21628042 230.65080129 -239.85245644 187.88559806 -206.5625 154.75 C-205.79550781 153.94820312 -205.02851563 153.14640625 -204.23828125 152.3203125 C-193.5957396 141.30836031 -180.25164532 131.08889862 -164.5625 129.75 C-164.44245605 129.09854004 -164.32241211 128.44708008 -164.19873047 127.77587891 C-162.71162229 119.75556733 -161.15994917 111.74905493 -159.5625 103.75 C-159.34851563 102.6770166 -159.13453125 101.6040332 -158.9140625 100.49853516 C-152.54713504 69.26816643 -143.2893208 36.64695805 -122.5625 11.75 C-122.10101563 11.12738281 -121.63953125 10.50476563 -121.1640625 9.86328125 C-109.62040144 -5.14347813 -88.52275913 -16.16370254 -69.9921875 -18.98486328 C-43.78101982 -21.84512535 -20.84754328 -16.46926924 0 0 Z " fill="#020101" transform="translate(410.5625,19.25)"/>
<path d="M0 0 C0.97324219 0.35191406 1.94648438 0.70382813 2.94921875 1.06640625 C20.65480168 7.93553766 36.08004069 20.18730756 44.22265625 37.6171875 C46.33647515 43.19913352 46.33647515 43.19913352 45.0546875 46.25 C44.70664062 46.8275 44.35859375 47.405 44 48 C41.64294704 45.02927645 39.86809162 41.98869573 38.125 38.625 C31.35842227 26.18109852 21.3426684 19.41110076 8 15 C-6.03027784 11.98806535 -19.5703458 13.57936898 -31.68359375 21.3515625 C-41.34317596 28.22566654 -46.75557271 38.30724678 -49.53125 49.7734375 C-53.02743363 73.83883484 -46.47077789 97.81344479 -32.24755859 117.37109375 C-28.51222165 122.24823037 -24.33936937 126.66063063 -20 131 C-19.18660156 131.81339844 -18.37320313 132.62679687 -17.53515625 133.46484375 C-10.2104138 140.4096968 -1.91717507 145.83396554 7.28125 149.9609375 C18.03566279 154.80559249 18.03566279 154.80559249 20.5390625 157.90625 C21.37067491 160.28228546 21.67494333 162.50090842 22 165 C22.49776098 166.98901223 22.99664354 168.97777772 23.50878906 170.96313477 C27.33567594 185.90452951 28.35105905 200.58053115 28.31567383 215.94165039 C28.31251594 218.79807847 28.33605981 221.6534647 28.36132812 224.50976562 C28.48336934 260.13945754 17.53528508 293.85592415 -7.375 319.6875 C-26.51906485 338.38017914 -50.03678919 347.69931059 -76 352 C-76.87317871 352.17797119 -77.74635742 352.35594238 -78.64599609 352.53930664 C-83.11105273 353.15261002 -87.49102908 353.12319675 -91.9921875 353.09765625 C-92.93812775 353.0962413 -93.88406799 353.09482635 -94.8586731 353.09336853 C-97.86414829 353.08779484 -100.86954753 353.0752472 -103.875 353.0625 C-105.91926975 353.0574816 -107.96354068 353.05291929 -110.0078125 353.04882812 C-115.00523736 353.03783403 -120.00260583 353.02058757 -125 353 C-121.74553038 349.6510642 -118.27997265 347.00419804 -114.4375 344.375 C-108.69973789 340.36725783 -103.54500676 336.08808132 -98.44140625 331.2890625 C-96.36553688 329.34272738 -94.24689349 327.50857547 -92.0625 325.6875 C-53.22027585 291.66108006 -27.90201159 237.90484998 -22 187 C-21.66578737 181.99199502 -21.66578737 181.99199502 -22 177 C-23.88500271 174.68436913 -23.88500271 174.68436913 -27 174.75 C-30.11499729 174.68436913 -30.11499729 174.68436913 -32 177 C-32.48827009 178.99237061 -32.48827009 178.99237061 -32.7109375 181.2890625 C-32.82179688 182.14886719 -32.93265625 183.00867188 -33.046875 183.89453125 C-33.26273817 185.69082117 -33.47381081 187.48769438 -33.6796875 189.28515625 C-35.00859736 199.44829639 -39.27779875 205.83967126 -45.8125 213.5625 C-46.40353516 214.27857422 -46.99457031 214.99464844 -47.60351562 215.73242188 C-51.0290312 219.83781077 -54.59202751 223.70526616 -58.43457031 227.42358398 C-60.04215767 229.04245354 -61.49253945 230.73555069 -62.9375 232.5 C-66.28391866 236.44772826 -70.02171654 239.70139193 -74 243 C-74.50112305 243.42941895 -75.00224609 243.85883789 -75.51855469 244.30126953 C-95.04776096 261.01188665 -118.97789926 275.77943473 -145.359375 275.37890625 C-150.68832131 274.82428416 -154.76436737 273.28370695 -159 270 C-162.46608738 265.58861606 -162.48086887 260.73038499 -162.7890625 255.29296875 C-162.75022184 253.03665879 -162.75022184 253.03665879 -164 252 C-167.28743547 251.33076238 -167.28743547 251.33076238 -171 252 C-172.44607797 253.35103628 -172.44607797 253.35103628 -173.6875 255.125 C-179.85580201 263.20760263 -191.27613638 266.57210255 -201 268 C-216.70579406 269.292855 -216.70579406 269.292855 -223 264 C-225.34893438 261.21064043 -226.06843684 259.93261963 -225.80078125 256.28515625 C-224.85263226 252.39543285 -223.19250515 249.23437545 -221.1875 245.8125 C-220.59461182 244.78189453 -220.59461182 244.78189453 -219.98974609 243.73046875 C-208.90999722 224.67073889 -196.71117351 206.26757904 -183 189 C-181.89205078 187.60007813 -181.89205078 187.60007813 -180.76171875 186.171875 C-150.45793463 148.49399066 -150.45793463 148.49399066 -129.7734375 145.5390625 C-126.8465848 145.28544763 -123.93577127 145.09934928 -121 145 C-118.93331685 135.95970442 -116.96236042 126.91021708 -115.18505859 117.80810547 C-107.75880137 79.83808911 -98.03635606 33.47962531 -64 10 C-45.41102454 -1.71212905 -21.24989035 -7.93286761 0 0 Z " fill="#F62020" transform="translate(377,15)"/>
<path d="M0 0 C2.95164654 1.17562918 5.88276256 2.39589581 8.8125 3.625 C9.64587891 3.95628906 10.47925781 4.28757813 11.33789062 4.62890625 C15.09973517 6.23033405 17.48757859 7.28993033 19.9140625 10.65234375 C21.33894829 15.04488736 22.52237475 19.4390403 23.5625 23.9375 C23.77068359 24.78634766 23.97886719 25.63519531 24.19335938 26.50976562 C27.52827315 40.65439992 28.34900046 54.47419068 28.31567383 68.94165039 C28.31251594 71.79807847 28.33605981 74.6534647 28.36132812 77.50976562 C28.48336934 113.13945754 17.53528508 146.85592415 -7.375 172.6875 C-26.51906485 191.38017914 -50.03678919 200.69931059 -76 205 C-76.87317871 205.17797119 -77.74635742 205.35594238 -78.64599609 205.53930664 C-83.11105273 206.15261002 -87.49102908 206.12319675 -91.9921875 206.09765625 C-92.93812775 206.0962413 -93.88406799 206.09482635 -94.8586731 206.09336853 C-97.86414829 206.08779484 -100.86954753 206.0752472 -103.875 206.0625 C-105.91926975 206.0574816 -107.96354068 206.05291929 -110.0078125 206.04882812 C-115.00523736 206.03783403 -120.00260583 206.02058757 -125 206 C-121.74553038 202.6510642 -118.27997265 200.00419804 -114.4375 197.375 C-108.69973789 193.36725783 -103.54500676 189.08808132 -98.44140625 184.2890625 C-96.36553688 182.34272738 -94.24689349 180.50857547 -92.0625 178.6875 C-67.77297204 157.40947856 -48.40436678 127.00287177 -37 97 C-36.34 97.33 -35.68 97.66 -35 98 C-35.59379669 103.55676411 -36.97984826 108.40075037 -38.9375 113.625 C-39.39721191 114.85464478 -39.39721191 114.85464478 -39.86621094 116.10913086 C-45.35680171 130.44130722 -51.83078996 144.29680128 -60.68457031 156.87719727 C-63.75332977 161.49633106 -64.44175148 164.5586109 -63.64428711 170.06494141 C-63.04490134 172.34667716 -63.04490134 172.34667716 -60.375 174.625 C-54.29158106 177.10342994 -50.15338819 175.16718689 -44.3125 172.875 C-22.14834672 163.15920678 -5.34540462 146.5007232 3.73046875 123.83984375 C16.84550553 88.68316041 12.90154937 46.36431934 2.56933594 11.07275391 C1.56492991 7.41606128 0.78324912 3.70935978 0 0 Z " fill="#DF1D1D" transform="translate(377,162)"/>
<path d="M0 0 C8.84573593 5.64798162 14.59404418 14.3449376 17.125 24.5625 C17.45848999 29.72708818 14.55466741 32.92333027 11.57470703 36.90307617 C-2.22827098 55.47546188 -7.52862623 78.33165784 -4.78515625 101.109375 C-4.34514082 103.84582135 -3.85453276 106.54579541 -3.25 109.25 C-13.43948952 105.46324178 -21.48618191 98.67626078 -29.25 91.25 C-29.93835938 90.63640625 -30.62671875 90.0228125 -31.3359375 89.390625 C-45.89482792 75.92508999 -54.54921034 55.11788013 -55.4140625 35.53515625 C-55.74681192 23.23222302 -54.14175762 12.62433146 -45.46484375 3.33984375 C-32.33625555 -8.95352612 -15.26235038 -8.48160333 0 0 Z " fill="#EBEBEB" transform="translate(393.25,45.75)"/>
<path d="M0 0 C-0.64066406 0.70125 -1.28132812 1.4025 -1.94140625 2.125 C-3.23884766 3.548125 -3.23884766 3.548125 -4.5625 5 C-5.40941406 5.928125 -6.25632813 6.85625 -7.12890625 7.8125 C-9.18916542 10.08018956 -11.19246362 12.38970828 -13.1875 14.71484375 C-17.7066355 19.89169958 -22.56994712 24.71570427 -27.4375 29.5625 C-28.79198242 30.9227832 -28.79198242 30.9227832 -30.17382812 32.31054688 C-34.75543879 36.88552233 -39.3891679 41.32889906 -44.30395508 45.54467773 C-46.45972401 47.39447457 -48.53844585 49.32278271 -50.625 51.25 C-56.2825965 56.35310006 -62.24580171 61.01408627 -68.27685547 65.66210938 C-69.84399113 66.87887099 -71.39373513 68.11794956 -72.94140625 69.359375 C-88.48223254 81.69270718 -105.32869381 92.95168234 -123 102 C-124.03713135 102.53294678 -124.03713135 102.53294678 -125.09521484 103.07666016 C-137.26631164 109.25135903 -150.95571425 116.13771429 -165 114 C-165.99 113.34 -166.98 112.68 -168 112 C-167.53253427 106.8386661 -166.52981418 103.61402025 -163.5625 99.375 C-162.83804688 98.33988281 -162.11359375 97.30476563 -161.3671875 96.23828125 C-154.44996222 86.71485744 -147.15192273 77.58650522 -139.39550781 68.73291016 C-137.92410821 66.97036163 -137.92410821 66.97036163 -136.58105469 64.77880859 C-131.63316275 57.3600344 -125.97288348 55.56788201 -117.625 53.125 C-115.00448508 52.29931515 -112.3927531 51.44745267 -109.78125 50.59375 C-109.12416046 50.38134674 -108.46707092 50.16894348 -107.79006958 49.95010376 C-78.39369722 40.33706773 -48.80452526 24.3427764 -24.234375 5.63671875 C-20.16729455 2.6418686 -17.14258868 0.97214248 -12 0.5625 C-10.39125 0.40974609 -10.39125 0.40974609 -8.75 0.25390625 C-7.8425 0.17011719 -6.935 0.08632813 -6 0 C-3 -1 -3 -1 0 0 Z " fill="#F52020" transform="translate(215,386)"/>
<path d="M0 0 C0 3.48392152 -0.48853966 3.96552355 -2.640625 6.5546875 C-3.21047119 7.2453833 -3.78031738 7.9360791 -4.36743164 8.64770508 C-5.29930298 9.75021606 -5.29930298 9.75021606 -6.25 10.875 C-6.88607178 11.63514404 -7.52214355 12.39528809 -8.17749023 13.1784668 C-32.56764564 42.12752975 -65.61081815 72.92531367 -105.08789062 77.22753906 C-116.3930162 78.06986098 -116.3930162 78.06986098 -120.86328125 75.09375 C-123.95279708 72.06636338 -123.95279708 72.06636338 -124.08178711 69.15234375 C-124.0638208 68.42144531 -124.04585449 67.69054687 -124.02734375 66.9375 C-124.01509766 66.14085937 -124.00285156 65.34421875 -123.99023438 64.5234375 C-123.95507633 62.84105971 -123.91601319 61.15875899 -123.87304688 59.4765625 C-123.85661133 58.28160156 -123.85661133 58.28160156 -123.83984375 57.0625 C-123.82300537 56.33160156 -123.80616699 55.60070312 -123.78881836 54.84765625 C-123.83436554 52.75081088 -123.83436554 52.75081088 -126 51 C-130.04754909 50.35607174 -131.58266032 50.6980947 -134.9375 53.125 C-135.96795578 54.07297909 -136.98833978 55.03198809 -138 56 C-149.11510946 65.99794813 -164.1307814 75.4491621 -179.484375 75.359375 C-183.56639574 74.77622918 -185.2315481 72.98140974 -188 70 C-192.44958481 61.10083038 -187.65263358 48.85231535 -184.80078125 40.125 C-182.22093988 32.60439754 -179.18757041 25.28048627 -176 18 C-173.75709448 20.20520963 -171.76939833 22.38803104 -170 25 C-170 25.66 -170 26.32 -170 27 C-168.66848318 27.67028738 -167.33470413 28.336082 -166 29 C-165.30003906 29.35320312 -164.60007813 29.70640625 -163.87890625 30.0703125 C-151.55778557 35.68026627 -139.38208651 32.87431037 -127 29 C-124.46716181 28.00567625 -122.03205007 26.95431085 -119.6015625 25.734375 C-118 25 -118 25 -116 25 C-115.6596875 25.72445313 -115.319375 26.44890625 -114.96875 27.1953125 C-110.7016684 35.70677846 -106.38201202 40.67053708 -97.3125 43.875 C-91.21193878 45.45385888 -85.25480327 45.39701147 -79 45 C-78.07832031 44.94199219 -77.15664062 44.88398438 -76.20703125 44.82421875 C-47.47651359 41.46084362 -19.59190039 20.17673324 0 0 Z " fill="#2BAFCE" transform="translate(304,299)"/>
<path d="M0 0 C0.99 0.495 0.99 0.495 2 1 C-20.57601487 33.28511521 -51.75875048 68.87177332 -92 78.375 C-100.42868122 79.71023663 -109.87740078 80.78321302 -117.44921875 76.2109375 C-120.80712957 73.58889127 -122.66314165 71.01057506 -124 67 C-124.22776994 64.19927333 -124.3801076 61.39999859 -124.5234375 58.59375 C-125.05858339 55.68115272 -125.60949032 54.70259323 -128 53 C-132.18149867 52.90275584 -134.48298147 54.2220142 -137.625 56.75 C-146.74688741 64.00565041 -158.9687025 67.6016367 -170.5703125 67.3125 C-174.58035334 66.79673912 -177.81402545 65.49670121 -181 63 C-185.24188676 56.43191728 -185.61716732 49.6442128 -185 42 C-183.87134533 37.75003138 -181.66334156 34.45413766 -179 31 C-178.5153125 31.39832031 -178.030625 31.79664063 -177.53125 32.20703125 C-166.74995274 40.72840274 -156.93963766 40.76179705 -143.7890625 39.75390625 C-135.50254843 38.67643726 -128.53391605 35.44092304 -121 32 C-120.01 31.67 -119.02 31.34 -118 31 C-117.70609375 31.58007812 -117.4121875 32.16015625 -117.109375 32.7578125 C-112.42544908 40.91430418 -105.73102047 44.08965984 -97 47 C-62.75432763 48.48294452 -35.02739671 32.12034262 -10 10 C-8.62908203 8.81277344 -8.62908203 8.81277344 -7.23046875 7.6015625 C-3.07025025 4.24256754 -3.07025025 4.24256754 0 0 Z " fill="#61E361" transform="translate(323,254)"/>
<path d="M0 0 C1.56394167 2.34591251 2.6243912 4.33744331 3.75 6.875 C5.80076651 11.0852858 8.23808044 13.2640585 12 16 C7.95428472 20.45673416 3.54343603 23.39099495 -1.625 26.4375 C-2.48601318 26.94829102 -3.34702637 27.45908203 -4.23413086 27.98535156 C-21.84181368 38.2845656 -39.98535522 47.59544788 -59 55 C-59.69625488 55.27779297 -60.39250977 55.55558594 -61.10986328 55.84179688 C-70.58892337 59.62185837 -80.06327285 62.65131904 -90 65 C-90.9075 65.226875 -91.815 65.45375 -92.75 65.6875 C-98.63689934 66.9797462 -104.43275844 67.19982609 -110.4375 67.25 C-111.21971924 67.2593457 -112.00193848 67.26869141 -112.80786133 67.27832031 C-116.66975395 67.25653721 -119.73260671 67.19568829 -123 65 C-122.03405653 58.88346927 -116.43274755 55.81179966 -111.74267578 52.31884766 C-109.36712965 50.62274905 -106.97024061 48.96255008 -104.5625 47.3125 C-102.78367749 46.07968197 -101.00503451 44.84660486 -99.2265625 43.61328125 C-98.34516602 43.00436035 -97.46376953 42.39543945 -96.55566406 41.76806641 C-92.83753541 39.19578061 -89.13421659 36.60293811 -85.4375 34 C-84.42490112 33.2894043 -84.42490112 33.2894043 -83.3918457 32.56445312 C-79.51302873 29.82743456 -75.68789286 27.03022718 -71.89453125 24.17578125 C-71.03738525 23.53318359 -70.18023926 22.89058594 -69.29711914 22.22851562 C-67.63542933 20.97854518 -65.97936277 19.72105361 -64.32983398 18.45507812 C-63.57645752 17.88853516 -62.82308105 17.32199219 -62.046875 16.73828125 C-61.38526367 16.23337158 -60.72365234 15.72846191 -60.04199219 15.20825195 C-57.65564563 13.79624465 -55.75429167 13.27347379 -53 13 C-51.7315625 13.7115625 -51.7315625 13.7115625 -50.4375 14.4375 C-43.20164345 17.72652571 -34.37579077 16.60968389 -27 14 C-26.13246094 13.69320313 -25.26492187 13.38640625 -24.37109375 13.0703125 C-15.64790626 9.70183797 -7.89133308 4.94825394 0 0 Z " fill="#1FA9CF" transform="translate(167,369)"/>
<path d="M0 0 C17.04825852 8.5565404 28.39792309 19.47413081 36 37 C36.58394531 38.34384766 36.58394531 38.34384766 37.1796875 39.71484375 C38.39936358 44.59935607 38.28837324 49.36089611 38.25 54.375 C38.26160156 55.87933594 38.26160156 55.87933594 38.2734375 57.4140625 C38.24897923 66.75712238 36.41454655 73.7595131 32 82 C27.82200675 80.44177408 25.53125292 77.36114046 22.8125 74 C21.82635946 72.81440612 20.83937104 71.629517 19.8515625 70.4453125 C18.15702149 68.39994416 16.46507511 66.35245934 14.7734375 64.3046875 C5.64198864 53.66843059 -5.34346527 45.95718711 -17.578125 39.25976562 C-22.89937946 36.30186161 -22.89937946 36.30186161 -24 33 C-18.80126827 20.36671834 -9.94547717 9.21379356 0 0 Z " fill="#FCD530" transform="translate(430,70)"/>
<path d="M0 0 C-0.64066406 0.70125 -1.28132812 1.4025 -1.94140625 2.125 C-3.23884766 3.548125 -3.23884766 3.548125 -4.5625 5 C-5.40941406 5.928125 -6.25632813 6.85625 -7.12890625 7.8125 C-9.18916542 10.08018956 -11.19246362 12.38970828 -13.1875 14.71484375 C-17.7066355 19.89169958 -22.56994712 24.71570427 -27.4375 29.5625 C-28.79198242 30.9227832 -28.79198242 30.9227832 -30.17382812 32.31054688 C-34.75543879 36.88552233 -39.3891679 41.32889906 -44.30395508 45.54467773 C-46.45972401 47.39447457 -48.53844585 49.32278271 -50.625 51.25 C-56.2825965 56.35310006 -62.24580171 61.01408627 -68.27685547 65.66210938 C-69.84399113 66.87887099 -71.39373513 68.11794956 -72.94140625 69.359375 C-88.48223254 81.69270718 -105.32869381 92.95168234 -123 102 C-124.03713135 102.53294678 -124.03713135 102.53294678 -125.09521484 103.07666016 C-137.26631164 109.25135903 -150.95571425 116.13771429 -165 114 C-165.99 113.34 -166.98 112.68 -168 112 C-167.58525633 106.71201818 -166.64775386 103.88309282 -163 100 C-163 100.66 -163 101.32 -163 102 C-122.16413085 99.00903201 -83.96943233 68.36518628 -54.01171875 42.57421875 C-50.17964096 39.29881114 -46.2677185 36.13267579 -42.33984375 32.97265625 C-37.72063532 29.44191852 -37.72063532 29.44191852 -35.625 24.375 C-35.79015749 21.81772804 -35.79015749 21.81772804 -38 20 C-40.57061311 19.35232207 -40.57061311 19.35232207 -43 19 C-38.50871775 15.30661954 -33.77565837 12.13953954 -28.91015625 8.96484375 C-26.65073466 7.43935508 -24.63624703 5.87651065 -22.5625 4.125 C-18.52766595 1.14142544 -13.75374555 0.92485413 -8.890625 0.359375 C-1.62992126 -0.54330709 -1.62992126 -0.54330709 0 0 Z " fill="#DD1D1D" transform="translate(215,386)"/>
<path d="M0 0 C2.24290552 2.20520963 4.23060167 4.38803104 6 7 C6 7.66 6 8.32 6 9 C7.32 9.66 8.64 10.32 10 11 C9.96519531 11.56847656 9.93039063 12.13695312 9.89453125 12.72265625 C9.64988124 19.70100663 10.71050109 24.48713534 15.5625 29.8125 C19.64457006 32.82402718 23.96965755 33.87596416 29 34 C32.39844693 33.42686524 35.66430779 32.63122297 38.9921875 31.73828125 C42.50639545 30.87570294 45.41324926 30.74976158 49 31 C49 31.33 49 31.66 49 32 C48.1234375 32.23460937 47.246875 32.46921875 46.34375 32.7109375 C42.5901879 34.15798831 40.46998622 35.93032149 37.5 38.625 C26.47692689 48.24176546 11.48362513 57.44690716 -3.484375 57.359375 C-7.56639574 56.77622918 -9.2315481 54.98140974 -12 52 C-16.44958481 43.10083038 -11.65263358 30.85231535 -8.80078125 22.125 C-6.22093988 14.60439754 -3.18757041 7.28048627 0 0 Z " fill="#2BAECD" transform="translate(128,317)"/>
<path d="M0 0 C2.0001827 0.14330577 4.00013825 0.28978294 6 0.4375 C7.670625 0.55931641 7.670625 0.55931641 9.375 0.68359375 C11.80634394 0.89581235 14.23258595 1.17683781 16.6484375 1.5234375 C22.29011823 2.2459139 27.94538863 2.19072958 33.625 2.1875 C35.38807495 2.1884668 35.38807495 2.1884668 37.18676758 2.18945312 C48.20115419 2.12411669 59.06222945 1.23865551 70 0 C71.15842044 1.6998232 72.30122266 3.41029577 73.4375 5.125 C74.07558594 6.07632812 74.71367187 7.02765625 75.37109375 8.0078125 C77.07475389 11.13731769 77.8039327 13.45067917 78 17 C75.5429414 19.4570586 74.17698591 19.24223338 70.82339478 19.27105713 C69.74485733 19.26498444 69.74485733 19.26498444 68.64453125 19.25878906 C67.88667328 19.2622937 67.12881531 19.26579834 66.34799194 19.26940918 C63.83606886 19.2782313 61.32442608 19.27237574 58.8125 19.265625 C57.07136989 19.26697151 55.33024015 19.26891193 53.58911133 19.27142334 C49.93730088 19.27437525 46.28558817 19.27007483 42.63378906 19.26074219 C37.94593019 19.24934759 33.2583003 19.25590671 28.57044983 19.26788712 C24.9743069 19.27510392 21.37821852 19.27281862 17.78207397 19.26763153 C16.0532529 19.26629454 14.32442692 19.26794449 12.59561157 19.27259064 C10.18209659 19.27765297 7.76895577 19.26994999 5.35546875 19.25878906 C4.2769313 19.26486176 4.2769313 19.26486176 3.17660522 19.27105713 C-1.77147104 19.22852896 -1.77147104 19.22852896 -4 17 C-3.68155994 10.94963888 -2.08398334 5.66214342 0 0 Z " fill="#FDD530" transform="translate(237,378)"/>
<path d="M0 0 C2.31 1.65 4.62 3.3 7 5 C2.95428472 9.45673416 -1.45656397 12.39099495 -6.625 15.4375 C-7.48601318 15.94829102 -8.34702637 16.45908203 -9.23413086 16.98535156 C-26.84181368 27.2845656 -44.98535522 36.59544788 -64 44 C-64.69625488 44.27779297 -65.39250977 44.55558594 -66.10986328 44.84179688 C-75.58892337 48.62185837 -85.06327285 51.65131904 -95 54 C-95.9075 54.226875 -96.815 54.45375 -97.75 54.6875 C-103.63689934 55.9797462 -109.43275844 56.19982609 -115.4375 56.25 C-116.21971924 56.2593457 -117.00193848 56.26869141 -117.80786133 56.27832031 C-121.66975395 56.25653721 -124.73260671 56.19568829 -128 54 C-127.46324097 50.14896699 -125.88399077 48.68202413 -122.9375 46.25 C-121.83728516 45.32960938 -121.83728516 45.32960938 -120.71484375 44.390625 C-119.86599609 43.70226562 -119.86599609 43.70226562 -119 43 C-117 44 -117 44 -116 45 C-78.03093637 46.40933206 -36.07274254 23.6899951 -5.21875 3.94921875 C-2 2 -2 2 0 2 C0 1.34 0 0.68 0 0 Z " fill="#1C99BB" transform="translate(172,380)"/>
<path d="M0 0 C4.56863952 0.5475523 7.86227843 2.50816586 11.625 5 C12.23674072 5.40009277 12.84848145 5.80018555 13.47875977 6.21240234 C21.84516774 11.77839823 30.62450242 18.14486475 37 26 C37 26.66 37 27.32 37 28 C27.85012643 34.85083283 14.66629816 42.71244569 3 42 C-1.09375183 33.27852871 -1.15953168 25.348999 -1.125 15.8125 C-1.12886719 14.73291016 -1.13273437 13.65332031 -1.13671875 12.54101562 C-1.13542969 11.50267578 -1.13414062 10.46433594 -1.1328125 9.39453125 C-1.13168457 8.45456299 -1.13055664 7.51459473 -1.12939453 6.54614258 C-1.01090867 4.21465379 -0.65981687 2.23138664 0 0 Z " fill="#F4BA22" transform="translate(401,117)"/>
<path d="M0 0 C1.00508801 1.78881736 2.00392736 3.58114696 3 5.375 C3.556875 6.37273437 4.11375 7.37046875 4.6875 8.3984375 C6 11 6 11 6 13 C5.01257813 13.4021875 4.02515625 13.804375 3.0078125 14.21875 C-0.46358105 15.7042484 -3.71247238 17.4619625 -6.99975586 19.31323242 C-16.82431463 24.7994105 -27.20734119 30.0312573 -38.70703125 26.9921875 C-44.01819253 24.69400187 -47.91883643 21.16232713 -50.5 16 C-51.06422132 12.61467208 -51.13703596 9.42589895 -51 6 C-48 5 -48 5 -44.625 6.4375 C-33.06252023 10.97840115 -19.19299346 7.21634757 -8.0546875 2.84375 C-6.55696108 2.16953232 -5.06950961 1.47118243 -3.6015625 0.734375 C-2 0 -2 0 0 0 Z " fill="#2FC1E2" transform="translate(188,324)"/>
<path d="M0 0 C0 3.48392152 -0.48853966 3.96552355 -2.640625 6.5546875 C-3.21071289 7.245625 -3.78080078 7.9365625 -4.36816406 8.6484375 C-5.29967285 9.75058594 -5.29967285 9.75058594 -6.25 10.875 C-7.20084473 12.01195312 -7.20084473 12.01195312 -8.17089844 13.171875 C-31.71283735 41.12572151 -31.71283735 41.12572151 -43.18359375 45.0390625 C-45.96217331 45.98709381 -48.63704159 47.10411515 -51.3359375 48.2565918 C-64.08482635 53.62445941 -77.10658701 56.72742132 -90.9375 54.3125 C-94.56013225 52.75994332 -96.52682224 51.05510194 -99 48 C-99.8125 45.6875 -99.8125 45.6875 -100 44 C-98.948125 44.165 -97.89625 44.33 -96.8125 44.5 C-68.35073845 47.96360061 -42.99228065 35.30455079 -20.84130859 18.45068359 C-13.57502863 12.72591092 -6.44752253 6.63998589 0 0 Z " fill="#2EBDDE" transform="translate(304,299)"/>
<path d="M0 0 C2.0001827 0.14330577 4.00013825 0.28978294 6 0.4375 C7.670625 0.55931641 7.670625 0.55931641 9.375 0.68359375 C11.80634394 0.89581235 14.23258595 1.17683781 16.6484375 1.5234375 C22.29011823 2.2459139 27.94538863 2.19072958 33.625 2.1875 C35.38807495 2.1884668 35.38807495 2.1884668 37.18676758 2.18945312 C48.20115419 2.12411669 59.06222945 1.23865551 70 0 C71.32 2.31 72.64 4.62 74 7 C54.55346409 9.94557823 35.17848329 10.36579627 15.55737305 9.23120117 C14.46851807 9.17424072 13.37966309 9.11728027 12.2578125 9.05859375 C10.80592529 8.97049438 10.80592529 8.97049438 9.32470703 8.88061523 C6.80354626 8.74984662 6.80354626 8.74984662 5 11 C5 13.31 5 15.62 5 18 C28.43 18 51.86 18 76 18 C76 18.33 76 18.66 76 19 C65.86462398 19.04627451 55.72927296 19.08184427 45.59381294 19.10362434 C40.88786217 19.11407597 36.18198349 19.12826022 31.47607422 19.15087891 C26.93735924 19.17255826 22.39871376 19.18455823 17.85995102 19.18975449 C16.12553691 19.19345909 14.39112674 19.20069294 12.6567421 19.21146011 C10.23347914 19.22590995 7.81050591 19.2279807 5.38720703 19.22705078 C4.30395645 19.23783661 4.30395645 19.23783661 3.19882202 19.24884033 C-1.77189568 19.22810432 -1.77189568 19.22810432 -4 17 C-3.68155994 10.94963888 -2.08398334 5.66214342 0 0 Z " fill="#E4C12C" transform="translate(237,378)"/>
<path d="M0 0 C5.86604904 4.74603968 11.75644211 12.08397827 12.640625 19.7578125 C12.32421875 22.01171875 12.32421875 22.01171875 10.32421875 24.01171875 C8.26123047 24.23876953 8.26123047 24.23876953 5.75390625 24.20703125 C4.85800781 24.20058594 3.96210938 24.19414062 3.0390625 24.1875 C2.10191406 24.17074219 1.16476562 24.15398437 0.19921875 24.13671875 C-1.21810547 24.12318359 -1.21810547 24.12318359 -2.6640625 24.109375 C-5.00155417 24.08576397 -7.33854248 24.05283391 -9.67578125 24.01171875 C-9.77810059 23.34640137 -9.88041992 22.68108398 -9.98583984 21.99560547 C-11.05849637 15.29184909 -13.41233184 9.92458876 -16.67578125 4.01171875 C-17.00578125 3.35171875 -17.33578125 2.69171875 -17.67578125 2.01171875 C-15.76381086 1.31126419 -13.8459769 0.62679975 -11.92578125 -0.05078125 C-10.8584375 -0.43363281 -9.79109375 -0.81648438 -8.69140625 -1.2109375 C-4.96695231 -2.17099752 -3.25247551 -1.91812658 0 0 Z " fill="#F3B922" transform="translate(336.67578125,372.98828125)"/>
<path d="M0 0 C2.70552388 2.19823815 4.44778333 3.89556667 6 7 C6.3768901 11.99379386 6.19468322 15.05989069 3 19 C-0.02926599 21.49072981 -2.11904534 22.85317422 -6 23.5 C-9.85379558 22.85770074 -11.99024197 21.4625293 -15 19 C-17.57224924 14.82665684 -17.69932104 10.77585103 -17 6 C-12.85630473 -0.95548849 -7.48367318 -2.10770118 0 0 Z " fill="#050505" transform="translate(382,57)"/>
<path d="M0 0 C12.77072394 0.22804864 25.26775065 7.10809082 35 15 C35.82886719 15.65484375 36.65773438 16.3096875 37.51171875 16.984375 C46.12162463 24.20983966 53.31644665 33.31502166 56.85546875 44.09765625 C57.04312669 46.56764046 56.2538356 47.90716661 55 50 C52.64294704 47.02927645 50.86809162 43.98869573 49.125 40.625 C42.6724544 28.75861127 33.65627211 22.3354464 21 18 C21 17.01 21 16.02 21 15 C15.02398958 8.92028441 7.55332692 4.7910234 0 1 C0 0.67 0 0.34 0 0 Z " fill="#D61C1C" transform="translate(366,13)"/>
<path d="M0 0 C0.495 0.99 0.495 0.99 1 2 C0.0409375 3.1446875 0.0409375 3.1446875 -0.9375 4.3125 C-3.14232781 6.88246713 -3.14232781 6.88246713 -4 10 C-4.66 10 -5.32 10 -6 10 C-6.10997314 10.72243896 -6.21994629 11.44487793 -6.33325195 12.18920898 C-7.04703873 15.19829983 -8.11160752 17.3070469 -9.66796875 19.97265625 C-10.22516602 20.94187012 -10.78236328 21.91108398 -11.35644531 22.90966797 C-11.96069336 23.95010254 -12.56494141 24.99053711 -13.1875 26.0625 C-19.37063962 36.87735572 -25.06283736 47.86848305 -30.55541992 59.04711914 C-31.1094751 60.1736792 -31.66353027 61.30023926 -32.234375 62.4609375 C-32.72131836 63.45915527 -33.20826172 64.45737305 -33.70996094 65.48583984 C-35 68 -35 68 -37 71 C-39.01623755 68.25791693 -40.04555181 66.7236527 -39.828125 63.26953125 C-38.84818085 59.40060081 -37.18746095 56.22576669 -35.1875 52.8125 C-34.79224121 52.12542969 -34.39698242 51.43835938 -33.98974609 50.73046875 C-23.79810381 33.19848758 -12.81684867 15.7476639 0 0 Z " fill="#DA1D1D" transform="translate(191,208)"/>
<path d="M0 0 C4.56863952 0.5475523 7.86227843 2.50816586 11.625 5 C12.23674072 5.40009277 12.84848145 5.80018555 13.47875977 6.21240234 C21.84516774 11.77839823 30.62450242 18.14486475 37 26 C37 26.66 37 27.32 37 28 C35.02 28.99 33.04 29.98 31 31 C30.52433594 30.47792969 30.04867188 29.95585937 29.55859375 29.41796875 C21.66934438 21.12190726 12.16472846 13.3666923 2 8 C1.01 8 0.02 8 -1 8 C-0.67 5.36 -0.34 2.72 0 0 Z " fill="#DAA51F" transform="translate(401,117)"/>
<path d="M0 0 C2.25 2.0625 2.25 2.0625 4 4 C3.030625 4.70125 2.06125 5.4025 1.0625 6.125 C-1.19101931 8.03305055 -1.93840121 8.8234168 -2.9375 11.6875 C-3.02223747 16.17858568 -2.57173085 20.54929522 -2 25 C-3.98 25 -5.96 25 -8 25 C-8.08636719 24.39414062 -8.17273438 23.78828125 -8.26171875 23.1640625 C-9.3965202 16.39689788 -11.69720972 10.98414963 -15 5 C-15.33 4.34 -15.66 3.68 -16 3 C-14.08802961 2.29954544 -12.17019565 1.615081 -10.25 0.9375 C-9.18265625 0.55464844 -8.1153125 0.17179687 -7.015625 -0.22265625 C-4.04160091 -0.98927645 -2.77500822 -1.18928924 0 0 Z " fill="#DBA61F" transform="translate(335,372)"/>
<path d="M0 0 C2.31 1.65 4.62 3.3 7 5 C5.87942681 8.25154331 4.75277056 11.50094672 3.625 14.75 C3.30789062 15.67039062 2.99078125 16.59078125 2.6640625 17.5390625 C2.2 18.87324219 2.2 18.87324219 1.7265625 20.234375 C1.44377441 21.05131836 1.16098633 21.86826172 0.86962891 22.70996094 C0.04060935 24.89306129 -0.91672885 26.93306884 -2 29 C-5.71662149 23.42506777 -5.53784907 17.54692142 -5 11 C-4.26316633 8.38758971 -3.28804048 6.4274609 -2 4 C-1.608125 3.195625 -1.21625 2.39125 -0.8125 1.5625 C-0.544375 1.046875 -0.27625 0.53125 0 0 Z " fill="#56C956" transform="translate(143,285)"/>
</svg>
